<?xml version="1.0" encoding="UTF-8" standalone="no"?>
<svg xmlns:dc="http://purl.org/dc/elements/1.1/" xmlns:cc="http://creativecommons.org/ns#" xmlns:rdf="http://www.w3.org/1999/02/22-rdf-syntax-ns#" xmlns:svg="http://www.w3.org/2000/svg" xmlns="http://www.w3.org/2000/svg" xmlns:sodipodi="http://sodipodi.sourceforge.net/DTD/sodipodi-0.dtd" xmlns:inkscape="http://www.inkscape.org/namespaces/inkscape" width="16px" height="16px" viewBox="0 0 16 16" id="svg2" version="1.1" inkscape:version="0.91 r13725" sodipodi:docname="14 column chart graph growth analytics arrow up.svg">
  <defs id="defs4">
    <pattern y="0" x="0" height="6" width="6" patternUnits="userSpaceOnUse" id="EMFhbasepattern"/>
    <pattern y="0" x="0" height="6" width="6" patternUnits="userSpaceOnUse" id="EMFhbasepattern-8"/>
  </defs>
  <sodipodi:namedview id="base" pagecolor="#ffffff" bordercolor="#666666" borderopacity="1.0" inkscape:pageopacity="0.0" inkscape:pageshadow="2" inkscape:zoom="22.4" inkscape:cx="7.9556305" inkscape:cy="11.009357" inkscape:document-units="px" inkscape:current-layer="layer1" showgrid="true" units="px" inkscape:snap-bbox="true" inkscape:bbox-paths="true" inkscape:bbox-nodes="true" inkscape:snap-bbox-edge-midpoints="true" inkscape:snap-bbox-midpoints="true" inkscape:window-width="1366" inkscape:window-height="705" inkscape:window-x="-8" inkscape:window-y="-8" inkscape:window-maximized="1">
    <inkscape:grid type="xygrid" id="grid3354"/>
  </sodipodi:namedview>
  
  <g inkscape:label="Layer 1" inkscape:groupmode="layer" id="layer1" transform="translate(0,-1036.3622)">
    <path style="fill:#000000;fill-opacity:1;stroke:none;stroke-linecap:round;stroke-linejoin:round;stroke-opacity:1" d="M 7.8242188 3 L 5.578125 3.1152344 C 6.3925392 3.9296479 6.3092414 3.850071 6.3789062 3.921875 L 4.296875 6.0039062 L 5.0039062 6.7109375 L 7.0839844 4.6308594 C 7.1547349 4.703731 7.0711405 4.621944 7.8828125 5.4335938 L 7.8847656 5.4335938 L 8 3.1757812 C 8.0055 3.0757813 7.9238457 2.9946 7.8242188 3 z M 11.5 3 C 11.223 3 11 3.223 11 3.5 L 11 12.5 C 11 12.777 11.223 13 11.5 13 L 13.5 13 C 13.777 13 14 12.777 14 12.5 L 14 3.5 C 14 3.223 13.777 3 13.5 3 L 11.5 3 z M 7.5 6 C 7.223 6 7 6.223 7 6.5 L 7 12.5 C 7 12.777 7.223 13 7.5 13 L 9.5 13 C 9.777 13 10 12.777 10 12.5 L 10 6.5 C 10 6.223 9.777 6 9.5 6 L 7.5 6 z M 3.625 8 C 3.27875 8 3 8.2787 3 8.625 L 3 12.375 C 3 12.7212 3.27875 13 3.625 13 L 5.375 13 C 5.72125 13 6 12.7212 6 12.375 L 6 8.625 C 6 8.2787 5.72125 8 5.375 8 L 3.625 8 z " transform="translate(0,1036.3622)" id="rect4784"/>
  </g>

	
	
	<metadata>
		<rdf:RDF xmlns:rdf="http://www.w3.org/1999/02/22-rdf-syntax-ns#" xmlns:rdfs="http://www.w3.org/2000/01/rdf-schema#" xmlns:dc="http://purl.org/dc/elements/1.1/">
			<rdf:Description about="https://iconscout.com/legal#licenses" dc:title="Column, Chart, Graph, Growth, Analytics, Arrow, Up" dc:description="Column, Chart, Graph, Growth, Analytics, Arrow, Up" dc:publisher="Iconscout" dc:date="2016-12-14" dc:format="image/svg+xml" dc:language="en">
				<dc:creator>
					<rdf:Bag>
						<rdf:li>Chamestudio</rdf:li>
					</rdf:Bag>
				</dc:creator>
			</rdf:Description>
		</rdf:RDF>
    </metadata></svg>
